<svg height="512pt" viewBox="0 0 512 512" width="512pt" xmlns="http://www.w3.org/2000/svg"><path d="m512 256c0 141.386719-114.613281 256-256 256s-256-114.613281-256-256 114.613281-256 256-256 256 114.613281 256 256zm0 0" fill="#fb3a4a"/><path d="m115.664062 41.859375c-69.664062 45.746094-115.66015575 124.574219-115.66015575 214.140625 0 5.757812.18749975 11.472656.57421875 17.136719h98.554687l14.835938-207.609375zm0 0" fill="#f6ba97"/><path d="m344.402344 29.90625h-208.574219c-6.914063 3.679688-13.644531 7.667969-20.164063 11.953125-3.175781 2.089844-6.3125 4.242187-9.382812 6.480469l-.542969 17.1875-6.605469 207.609375 72.527344 57.175781c17.617188 13.886719 27.898438 35.101562 27.898438 57.535156v83.308594c0 9.707031 7.867187 17.574219 17.574218 17.574219h7.992188c46.144531 0 83.550781-37.40625 83.550781-83.550781v-54.792969l3.300781-29.621094zm0 0" fill="#f6ba97"/><path d="m311.976562 320.765625-39.902343 6.089844c-11.53125 0-31.210938-37.136719-40.917969-92.453125-4.316406-24.574219-22.371094-44.601563-46.386719-51.371094-.1875-.054688-.375-.105469-.5625-.160156-21.589843-5.976563-40.980469-4.796875-41.375-4.769532-5.714843.390626-10.738281-3.9375-11.144531-9.691406s3.929688-10.75 9.6875-11.15625c.28125-.019531 2.539062-.171875 6.261719-.171875 8.378906 0 24.164062.761719 41.503906 5.472657 2.894531.785156 5.710937 1.652343 8.453125 2.59375 13.457031 4.617187 27.601562-5.066407 28.382812-19.273438.398438-7.3125 1.015626-14.730469 1.863282-22.234375 3.503906-30.941406-20.480469-58.113281-51.621094-58.113281h-91.265625c9.613281-8.632813 19.875-16.554688 30.710937-23.667969 6.519532-4.285156 13.25-8.277344 20.164063-11.953125h208.574219zm0 0" fill="#eaa27f"/><path d="m435.78125 144.28125c0-22.835938-18.507812-41.347656-41.335938-41.347656h-112.632812c-11.410156 0-21.753906 4.628906-29.238281 12.109375-7.484375 7.484375-12.109375 17.828125-12.109375 29.242187 0 15.816406 8.882812 29.566406 21.949218 36.507813 5.785157 3.082031 12.390626 4.828125 19.398438 4.828125h112.632812c20.101563 0 36.847657-14.347656 40.566407-33.363282.511719-2.578124.769531-5.253906.769531-7.976562zm0 0" fill="#eaa27f"/><path d="m435.011719 152.257812c-3.613281-18.019531-19.515625-31.585937-38.597657-31.585937h-98.386718c-21.746094 0-39.367188 17.625-39.367188 39.371094v3.949219c0 6.003906 1.339844 11.703124 3.753906 16.800781 5.785157 3.082031 12.390626 4.828125 19.398438 4.828125h112.632812c20.105469 0 36.847657-14.347656 40.566407-33.363282zm0 0" fill="#f6ba97"/><path d="m285.503906 175.964844c7.554688-20.445313 7.554688-42.917969 0-63.367188v-.007812h-3.09375c-8.40625 0-16.613281 3.074218-22.648437 8.925781-6.214844 6.027344-9.640625 14.128906-9.640625 22.765625 0 11.742188 6.449218 22.472656 16.820312 27.984375 4.617188 2.453125 9.617188 3.699219 14.871094 3.699219zm0 0" fill="#f7dbd0"/><path d="m435.78125 290.339844c0-22.835938-18.507812-41.347656-41.335938-41.347656h-102.972656c-11.414062 0-21.757812 4.628906-29.242187 12.109374-7.480469 7.484376-12.109375 17.828126-12.109375 29.242188 0 15.816406 8.886718 29.566406 21.949218 36.507812 5.785157 3.082032 12.390626 4.828126 19.402344 4.828126h102.972656c20.101563 0 36.847657-14.347657 40.566407-33.359376.511719-2.582031.769531-5.253906.769531-7.980468zm0 0" fill="#eaa27f"/><path d="m435.011719 298.320312c-3.613281-18.019531-19.515625-31.585937-38.597657-31.585937h-88.730468c-21.746094 0-39.367188 17.621094-39.367188 39.367187v3.949219c0 6.007813 1.339844 11.703125 3.753906 16.800781 5.785157 3.082032 12.390626 4.832032 19.402344 4.832032h102.972656c20.105469-.003906 36.847657-14.351563 40.566407-33.363282zm0 0" fill="#f6ba97"/><path d="m295.160156 322.023438c7.554688-20.445313 7.554688-42.917969.003906-63.363282l-.003906-.011718h-3.09375c-8.40625 0-16.613281 3.074218-22.648437 8.925781-6.214844 6.027343-9.640625 14.128906-9.640625 22.765625 0 11.742187 6.449218 22.472656 16.820312 27.984375 4.617188 2.453125 9.617188 3.699219 14.871094 3.699219zm0 0" fill="#f7dbd0"/><path d="m225.121094 488.730469v-89.292969c0-50.089844-31.957032-94.59375-79.417969-110.597656l-46.566406-15.707032 72.519531 57.175782c17.621094 13.894531 27.90625 35.101562 27.90625 57.542968v83.300782c0 9.707031 7.871094 17.578125 17.578125 17.578125zm0 0" fill="#eaa27f"/><path d="m435.78125 217.3125c0-22.835938-18.507812-41.347656-41.335938-41.347656h-112.632812c-11.410156 0-21.753906 4.625-29.238281 12.109375s-12.109375 17.824219-12.109375 29.238281c0 15.816406 8.882812 29.570312 21.949218 36.511719 5.785157 3.078125 12.390626 4.828125 19.398438 4.828125h112.632812c20.101563 0 36.847657-14.351563 40.566407-33.363282.511719-2.578124.769531-5.253906.769531-7.976562zm0 0" fill="#eaa27f"/><path d="m435.011719 225.289062c-3.613281-18.019531-19.515625-31.585937-38.597657-31.585937h-98.386718c-21.746094 0-39.367188 17.621094-39.367188 39.367187v3.953126c0 6.003906 1.339844 11.703124 3.753906 16.800781 5.785157 3.078125 12.390626 4.828125 19.398438 4.828125h112.632812c20.105469 0 36.847657-14.351563 40.566407-33.363282zm0 0" fill="#f6ba97"/><path d="m285.503906 248.992188c7.554688-20.445313 7.554688-42.917969 0-63.363282v-.007812h-3.09375c-8.40625 0-16.613281 3.070312-22.648437 8.921875-6.214844 6.027343-9.640625 14.132812-9.640625 22.769531 0 11.742188 6.449218 22.46875 16.820312 27.984375 4.617188 2.449219 9.617188 3.695313 14.871094 3.695313zm0 0" fill="#f7dbd0"/><path d="m199.5625 476.15625v-70.003906h49.25v20.757812c-.003906 27.195313-22.050781 49.246094-49.25 49.246094zm0 0" fill="#f7dbd0"/><path d="m425.832031 71.253906c0-22.839844-18.511719-41.347656-41.335937-41.347656h-83.371094c-11.414062 0-21.757812 4.625-29.242188 12.109375-7.480468 7.480469-12.109374 17.824219-12.109374 29.238281 0 15.816406 8.886718 29.566406 21.949218 36.511719 5.785156 3.078125 12.390625 4.828125 19.402344 4.828125h83.371094c20.101562 0 36.847656-14.351562 40.566406-33.363281.511719-2.578125.769531-5.253907.769531-7.976563zm0 0" fill="#eaa27f"/><path d="m425.0625 79.226562c-3.613281-18.015624-19.515625-31.582031-38.597656-31.582031h-69.128906c-21.746094 0-39.367188 17.621094-39.367188 39.367188v3.949219c0 6.007812 1.34375 11.703124 3.753906 16.800781 5.785156 3.082031 12.390625 4.832031 19.402344 4.832031h83.371094c20.101562-.003906 36.847656-14.351562 40.566406-33.367188zm0 0" fill="#f6ba97"/><path d="m304.8125 102.933594c7.554688-20.445313 7.554688-42.917969.003906-63.363282l-.003906-.007812h-3.09375c-8.40625 0-16.609375 3.070312-22.648438 8.921875-6.214843 6.027344-9.640624 14.132813-9.640624 22.769531 0 11.742188 6.453124 22.46875 16.820312 27.980469 4.617188 2.453125 9.617188 3.699219 14.871094 3.699219zm0 0" fill="#f7dbd0"/></svg>